<svg width="800" height="1000" viewBox="0 0 800 1000" fill="none" xmlns="http://www.w3.org/2000/svg">
  <!-- Blue S shape -->
  <path d="M330 180C330 80.5887 409.588 0 509 0H689V611C689 710.411 609.412 790 510 790H330V180Z" fill="url(#blue-gradient)"/>

  <!-- Top green curve with circle -->
  <path d="M410 400C410 360 440 330 480 330H720C760 330 790 360 790 400V460C790 500 760 530 720 530H480C440 530 410 500 410 460V400Z" fill="url(#green-gradient-1)"/>
  <circle cx="760" cy="430" r="40" fill="url(#green-gradient-2)"/>

  <!-- Bottom green curve -->
  <path d="M330 650C190 650 80 760 80 900C80 930 100 950 130 950H510C570 950 620 900 620 840V750C620 700 590 670 540 670H450C400 670 370 700 370 750V840" stroke="url(#green-gradient-3)" stroke-width="80" stroke-linecap="round" fill="none"/>

  <defs>
    <linearGradient id="blue-gradient" x1="509" y1="0" x2="509" y2="790" gradientUnits="userSpaceOnUse">
      <stop offset="0%" stop-color="#1478C8"/>
      <stop offset="100%" stop-color="#2B5FA6"/>
    </linearGradient>

    <linearGradient id="green-gradient-1" x1="410" y1="430" x2="790" y2="430" gradientUnits="userSpaceOnUse">
      <stop offset="0%" stop-color="#1BAAA0"/>
      <stop offset="100%" stop-color="#6DD400"/>
    </linearGradient>

    <linearGradient id="green-gradient-2" x1="720" y1="430" x2="800" y2="430" gradientUnits="userSpaceOnUse">
      <stop offset="0%" stop-color="#8FD14F"/>
      <stop offset="100%" stop-color="#C4E538"/>
    </linearGradient>

    <linearGradient id="green-gradient-3" x1="80" y1="810" x2="620" y2="810" gradientUnits="userSpaceOnUse">
      <stop offset="0%" stop-color="#1BAAA0"/>
      <stop offset="50%" stop-color="#26B87C"/>
      <stop offset="100%" stop-color="#6DD400"/>
    </linearGradient>
  </defs>
</svg>
